<svg width="930" height="930" viewBox="0 0 930 930" fill="none" xmlns="http://www.w3.org/2000/svg">
<g clip-path="url(#clip0_369_359)">
<path d="M746.782 354.478C742.116 348.354 734.729 345.147 727.05 345.438L623.137 351.757L252.883 374.211L214.487 272.923C209.432 259.703 196.795 251.246 182.506 251.927L109.699 255.426C99.0068 255.912 90.7443 265.05 91.2303 275.742C91.7164 286.435 100.756 294.6 111.546 294.211L179.784 290.906L322.968 668.646C325.884 676.422 333.271 681.185 341.145 681.185C343.478 681.185 345.811 680.796 348.046 679.921C358.059 676.13 363.113 664.855 359.322 654.842L354.268 641.428L412.494 638.318C413.368 638.415 414.243 638.706 415.118 638.706C416.868 638.706 418.715 638.415 420.464 637.832L635.58 626.361C654.923 625.292 671.351 612.753 677.572 594.381L750.476 375.766C752.906 368.476 751.545 360.505 746.879 354.381L746.782 354.478ZM680.1 463.834L627.414 466.556L640.44 389.667L706.151 385.681L680.1 463.834ZM523.113 593.506L516.309 511.27L580.95 507.868L566.855 591.173L523.113 593.506ZM428.824 598.561L402.773 517.2L477.427 513.312L484.231 595.547L428.824 598.561ZM390.428 478.998L367.099 406.192L467.998 400.068L474.219 474.527L390.428 478.901V478.998ZM513.004 472.583L506.783 397.735L600.488 392.097L587.56 468.694L513.004 472.583ZM327.05 408.622L350.282 481.04L294.486 483.956L267.269 412.218L327.05 408.622ZM308.97 522.157L362.53 519.338L388.581 600.699L339.687 603.324L308.873 522.157H308.97ZM640.537 582.133C639.468 585.244 636.649 587.382 633.441 587.576L606.612 589.035L620.707 505.827L666.782 503.397L640.537 582.133Z" fill="#6C5A77" stroke="#1A1521" stroke-width="19.441" stroke-linejoin="round"/>
<path d="M378.958 810.564C407.733 810.564 431.06 787.237 431.06 758.462C431.06 729.687 407.733 706.36 378.958 706.36C350.183 706.36 326.856 729.687 326.856 758.462C326.856 787.237 350.183 810.564 378.958 810.564Z" fill="#493F4F" stroke="#1A1521" stroke-width="19.441" stroke-linejoin="round"/>
<path d="M654.147 804.537C682.922 804.537 706.249 781.21 706.249 752.435C706.249 723.66 682.922 700.333 654.147 700.333C625.372 700.333 602.045 723.66 602.045 752.435C602.045 781.21 625.372 804.537 654.147 804.537Z" fill="#493F4F" stroke="#1A1521" stroke-width="19.441" stroke-linejoin="round"/>
<path d="M552.567 765.168H488.023C477.33 765.168 468.582 756.42 468.582 745.727C468.582 735.035 477.33 726.286 488.023 726.286H552.567C563.26 726.286 572.008 735.035 572.008 745.727C572.008 756.42 563.26 765.168 552.567 765.168Z" fill="#6C5A77" stroke="#1A1521" stroke-width="19.441" stroke-linejoin="round"/>
<path d="M208.948 739.216L270.576 742.132C276.797 742.424 276.797 732.703 270.576 732.412L208.948 729.496C202.726 729.204 202.726 738.925 208.948 739.216Z" fill="#00FFA7"/>
<path d="M142.557 793.067L272.909 777.903C279.033 777.223 279.131 767.502 272.909 768.183L142.557 783.347C136.433 784.027 136.336 793.748 142.557 793.067V793.067Z" fill="#00FFA7"/>
<path d="M227.127 341.935C264.259 444.195 300.225 547.621 345.814 646.479C351.063 657.852 367.783 647.937 362.631 636.661C317.819 539.359 282.534 437.391 245.984 336.783C241.707 325.119 222.947 330.173 227.224 341.935H227.127Z" fill="#1A1521"/>
<path d="M148.293 305.289C143.918 305.289 139.641 305.386 135.364 305.678C134.392 305.678 132.351 305.872 131.67 305.872C130.018 306.067 128.366 306.164 126.81 306.358C114.271 307.914 102.315 310.149 90.8443 302.762C76.7496 293.624 74.4166 275.739 82.0958 261.838C86.2757 254.256 95.413 250.854 103.675 250.854C117.381 250.854 131.087 250.854 144.793 250.854C157.819 250.854 171.233 250.076 184.259 251.048C194.465 251.729 204.38 255.617 210.893 263.782C215.559 269.517 218.183 276.127 221.099 282.835C226.348 295.082 231.209 307.427 235.777 319.967C240.54 332.798 238.013 345.435 225.474 352.725C220.127 355.836 212.351 356.127 206.616 354.28C201.561 352.628 194.562 347.768 192.618 342.421C189.702 334.451 186.689 326.577 183.481 318.801C180.856 312.385 174.927 308.011 168.025 307.33L148.487 305.386L148.293 305.289Z" fill="#00FFA7" stroke="#1A1521" stroke-width="19.441" stroke-miterlimit="10" stroke-linecap="round"/>
<path d="M653.077 771.78C678.059 771.78 678.156 732.897 653.077 732.897C627.998 732.897 627.998 771.78 653.077 771.78Z" fill="#1A1521"/>
<path d="M380.419 775.373C405.4 775.373 405.498 736.491 380.419 736.491C355.34 736.491 355.34 775.373 380.419 775.373Z" fill="#1A1521"/>
</g>
<defs>
<clipPath id="clip0_369_359">
<rect width="793" height="710.862" fill="white" transform="translate(68 109.422)"/>
</clipPath>
</defs>
</svg>
