<svg width="32" height="22" viewBox="0 0 32 22" fill="none" xmlns="http://www.w3.org/2000/svg">
<path d="M31.1745 7.74842C31.1745 7.74842 28.3134 3.92638 28.3118 3.92421C28.311 3.92319 28.2486 3.81241 28.0564 3.75125L16.1339 0.384742C16.0463 0.360034 15.9537 0.360034 15.8661 0.384742L3.94359 3.75125C3.94359 3.75125 3.78082 3.79822 3.68301 3.93025C3.64384 3.98312 0.82552 7.74842 0.82552 7.74842C0.731033 7.87481 0.70266 8.0388 0.74936 8.18956C0.796129 8.34032 0.912269 8.45958 1.06167 8.51029L3.58479 9.36658V16.2138C3.58479 16.4132 3.705 16.5929 3.88936 16.669L15.8119 21.5957C15.8473 21.6104 15.8923 21.6331 16 21.6331C16.1077 21.6331 16.1881 21.5957 16.1881 21.5957L28.1107 16.669C28.2951 16.5929 28.4152 16.4131 28.4152 16.2138V9.36644L30.9383 8.51015C31.0877 8.45945 31.2039 8.34012 31.2506 8.18943C31.2973 8.03881 31.2689 7.87481 31.1745 7.74842ZM2.0212 7.79532L4.27056 4.78966L5.18034 5.04027L10.3005 6.45065L15.1426 7.7846L12.3028 11.2848L2.0212 7.79532ZM15.5074 20.4036L4.57011 15.8842V9.70088L12.311 12.3283C12.3629 12.346 12.4163 12.3544 12.4693 12.3544C12.6149 12.3544 12.7565 12.2897 12.8518 12.1721L15.5075 8.89903L15.5074 20.4036ZM16 6.99897L5.91119 4.21961L16 1.37075L26.0888 4.21961L16 6.99897ZM27.4299 15.8842L16.4926 20.4036V8.89917L19.1483 12.1722C19.2436 12.2897 19.3852 12.3545 19.5308 12.3545C19.5838 12.3545 19.6372 12.3462 19.6891 12.3285L27.4299 9.70102V15.8842ZM19.6973 11.2849L16.8574 7.78473L27.7295 4.78966L29.9789 7.79532L19.6973 11.2849Z" fill="#28B446"/>
</svg>
