<svg width="24" height="24" viewBox="0 0 24 24" fill="none" xmlns="http://www.w3.org/2000/svg">
<path d="M11.9959 23.6365C11.9193 23.6365 11.8418 23.6181 11.772 23.5812L0.630321 17.7642C0.470352 17.6808 0.369522 17.515 0.369522 17.3347V6.42763C0.369522 6.25991 0.456778 6.10382 0.599297 6.01559C0.741815 5.92736 0.921175 5.91961 1.07048 5.99426L12.2121 11.569C12.376 11.6514 12.4797 11.8191 12.4797 12.0023V23.1517C12.4797 23.3214 12.3915 23.4785 12.2461 23.5667C12.1704 23.6132 12.0832 23.6365 11.9959 23.6365ZM1.33904 17.0409L11.5112 22.3519V12.3019L1.33904 7.21197V17.0409Z" fill="#28B446"/>
<path d="M12.0112 23.6362C11.924 23.6362 11.8367 23.613 11.7601 23.5664C11.6157 23.4782 11.5265 23.3212 11.5265 23.1515V12.0021C11.5265 11.8188 11.6302 11.6511 11.7941 11.5687L22.9357 5.99401C23.084 5.91838 23.2644 5.92614 23.4069 6.01533C23.5504 6.10356 23.6376 6.25965 23.6376 6.42738V17.3344C23.6376 17.5147 23.5368 17.6805 23.3768 17.7639L12.2352 23.581C12.1654 23.6178 12.0878 23.6362 12.0112 23.6362ZM12.496 12.3017V22.3516L22.6681 17.0406V7.21171L12.496 12.3017ZM23.1529 17.3344H23.1626H23.1529Z" fill="#28B446"/>
<path d="M0.854188 6.91238C0.675797 6.91238 0.505163 6.81446 0.419846 6.6448C0.299626 6.40533 0.397547 6.11447 0.637017 5.99425L11.7942 0.419552C11.9309 0.351686 12.0918 0.351686 12.2276 0.419552L23.3692 5.99425C23.6087 6.11447 23.7056 6.40533 23.5864 6.6448C23.4662 6.88427 23.1763 6.98025 22.9358 6.86197L12.0114 1.39488L1.07136 6.861C1.00155 6.8959 0.927871 6.91238 0.854188 6.91238Z" fill="#28B446"/>
<path d="M17.8208 14.9109C17.5532 14.9109 17.3361 14.6937 17.3361 14.4261V9.39338L6.46199 3.95247C6.22252 3.83322 6.12557 3.54139 6.24579 3.30192C6.36601 3.06245 6.65686 2.96647 6.89633 3.08475L18.038 8.65946C18.2018 8.74283 18.3056 8.91056 18.3056 9.0938V14.4261C18.3056 14.6937 18.0884 14.9109 17.8208 14.9109Z" fill="#28B446"/>
</svg>
