<svg width="28" height="28" viewBox="0 0 28 28" fill="none" xmlns="http://www.w3.org/2000/svg">
<path d="M27.0445 18.2685C26.8995 17.8704 26.4595 17.6651 26.0614 17.8101L23.7064 18.6672C23.524 18.1661 19.0011 5.73887 18.7224 4.9731C18.6528 4.78196 18.5102 4.62626 18.3257 4.54031C18.1414 4.4543 17.9304 4.4451 17.7393 4.51474L8.35545 7.93029C7.10201 4.49623 6.09865 1.74695 5.97742 1.41386C5.90783 1.22268 5.76517 1.06698 5.58079 0.981022C5.39651 0.895067 5.18554 0.885863 4.99431 0.955455C4.74284 1.04698 1.73206 2.26007 1.38958 2.39808C0.996679 2.55639 0.806571 3.00324 0.964875 3.39615C1.12318 3.78906 1.57002 3.97912 1.96292 3.82086C2.84867 3.46395 4.04837 2.98151 4.80599 2.6789C6.00529 5.96595 10.6776 18.7651 12.0542 22.536C11.0071 22.7512 10.2172 23.6801 10.2172 24.79C10.2172 26.0588 11.2494 27.091 12.5181 27.091C13.7869 27.091 14.8191 26.0588 14.8191 24.79C14.8191 24.3736 14.7073 23.9831 14.5131 23.6458L26.586 19.2516C26.9841 19.1066 27.1893 18.6665 27.0445 18.2685ZM22.265 19.1919L13.6156 22.3401C13.2252 21.2705 12.438 19.1143 11.5115 16.5761L20.1664 13.4259L22.265 19.1919ZM17.5433 6.21845L19.6418 11.9844L10.9855 15.1351C10.2998 13.2567 9.56819 11.2524 8.8815 9.37117L17.5433 6.21845ZM12.5181 25.557C12.0952 25.557 11.7512 25.2129 11.7512 24.79C11.7512 24.3671 12.0952 24.023 12.5181 24.023C12.941 24.023 13.2851 24.3671 13.2851 24.79C13.2851 25.2129 12.941 25.557 12.5181 25.557Z" fill="#868889"/>
</svg>
