<svg width="25" height="23" viewBox="0 0 25 23" fill="none" xmlns="http://www.w3.org/2000/svg">
<path fill-rule="evenodd" clip-rule="evenodd" d="M12.5142 0.0681792C12.1198 0.165361 11.8332 0.330516 11.53 0.635278C11.2034 0.96346 11.0221 1.32017 10.9579 1.7606C10.8004 2.84096 11.512 3.8742 12.5639 4.09275C13.5291 4.29326 14.5473 3.75187 14.9032 2.84899C15.2075 2.07693 15.0259 1.19667 14.4425 0.615673C14.1509 0.325294 13.8894 0.178417 13.475 0.0724375C13.102 -0.0229359 12.8879 -0.0238999 12.5142 0.0681792ZM12.5126 4.97573C12.28 5.04945 11.9222 5.25318 10.5055 6.11829C10.152 6.33418 9.66948 6.6279 9.43325 6.77096L9.00375 7.03112L8.56951 6.90522C8.09561 6.76778 7.9896 6.73548 7.33178 6.52794C6.00057 6.10796 5.55589 5.96956 5.48108 5.95185C5.40885 5.93473 5.3886 5.9653 5.32565 6.18654C5.15354 6.79108 5.13743 6.82945 5.06785 6.80012C5.03145 6.78482 4.86593 6.76344 4.70006 6.75264C4.03714 6.70953 3.37491 7.0709 3.0442 7.65619C2.97867 7.77218 2.91094 7.87583 2.8937 7.88647C2.87647 7.89712 2.68391 7.84288 2.46581 7.76595C2.2477 7.68902 2.03964 7.62606 2.00344 7.62606C1.94531 7.62606 1.74215 8.14363 1.54618 8.79111C1.52947 8.84635 1.50171 8.90067 1.48452 8.91184C1.45736 8.92947 0.894357 10.5867 0.529174 11.7238C0.461802 11.9337 0.315126 12.3738 0.203322 12.7018C0.0914767 13.0298 0 13.3209 0 13.3488C0 13.3792 0.357229 13.5167 0.893875 13.693C1.38553 13.8546 2.23971 14.1385 2.7921 14.3241C4.98216 15.0597 5.35525 15.1801 5.37707 15.1583C5.40206 15.1333 5.71502 14.2161 6.27484 12.5273C6.47628 11.9197 6.79188 10.9714 6.9762 10.42C7.16052 9.86863 7.29788 9.40642 7.28141 9.39292C7.26493 9.37938 7.07065 9.30848 6.84969 9.23528C6.62874 9.16212 6.42774 9.08623 6.40304 9.06667C6.37166 9.04184 6.36921 8.97354 6.39484 8.84081C6.41509 8.73616 6.41991 8.52846 6.40557 8.37933C6.3895 8.2118 6.39452 8.10815 6.41879 8.10815C6.44036 8.10815 6.94025 8.34317 7.5296 8.63042C8.11896 8.91766 8.61033 9.15268 8.62153 9.15268C8.63278 9.15268 8.75126 9.20692 8.88488 9.2732C9.01846 9.33949 9.14854 9.39324 9.17389 9.39268C9.19924 9.39212 9.70808 9.09495 10.3047 8.7323C10.9013 8.36969 11.402 8.08542 11.4174 8.1006C11.4427 8.12551 11.4804 8.3443 11.6731 9.58455C11.8126 10.4825 11.8494 10.7042 11.8713 10.7797C11.8841 10.8239 11.859 10.9957 11.8156 11.1614C11.7417 11.4434 11.6884 11.6292 11.4262 12.5173C11.3691 12.7106 11.2591 13.0857 11.1817 13.3509C11.1043 13.616 11.017 13.9143 10.9876 14.0138C10.9583 14.1132 10.871 14.4115 10.7937 14.6766C10.7164 14.9418 10.5864 15.3847 10.5049 15.6609C10.2704 16.4553 10.2446 16.5612 10.0643 17.4687C10.0357 17.6124 9.97392 17.9106 9.92687 18.1316C9.87987 18.3526 9.78791 18.7955 9.72255 19.1159C9.61866 19.6251 9.48158 20.2853 9.2554 21.3656C9.22073 21.5313 9.16734 21.7935 9.13681 21.9482C9.10628 22.1028 9.06373 22.3012 9.04232 22.3891C8.99588 22.5796 9.00363 22.5864 9.33627 22.649C9.47118 22.6744 9.69905 22.7211 9.84267 22.7529C10.7606 22.9557 11.0593 23.0148 11.077 22.997C11.0881 22.986 11.1315 22.8087 11.1735 22.6032C11.2156 22.3976 11.3035 21.9672 11.3688 21.6468C11.4342 21.3265 11.5517 20.757 11.6299 20.3814C11.7082 20.0057 11.8282 19.4272 11.8967 19.0958C11.9652 18.7644 12.0559 18.3305 12.0982 18.1316C12.1405 17.9327 12.1937 17.6706 12.2162 17.5491C12.2783 17.2154 12.3237 17.0926 12.5954 16.5246C12.7328 16.2374 12.9088 15.8668 12.9865 15.7011C13.4616 14.6879 13.7073 14.2072 13.7342 14.2388C13.7511 14.2587 13.8868 14.8986 14.0359 15.6609C14.185 16.4232 14.3325 17.1644 14.3637 17.308C14.3949 17.4517 14.4391 17.6771 14.4619 17.809C14.4848 17.941 14.5259 18.0699 14.5534 18.0956C14.5808 18.1212 14.9649 18.2717 15.4068 18.4298C16.4987 18.8206 17.3065 19.1125 17.4758 19.1772C17.8378 19.3158 20.8379 20.4158 20.8947 20.4309C20.9391 20.4426 20.9906 20.3876 21.06 20.2539C21.1154 20.1473 21.3003 19.7918 21.4709 19.4641C21.6415 19.1363 21.7751 18.8628 21.7677 18.8563C21.7603 18.8498 21.5554 18.7406 21.3124 18.6137C21.0693 18.4868 20.7258 18.3062 20.5491 18.2124C20.3723 18.1185 20.0469 17.9465 19.8259 17.8301C19.605 17.7137 19.2796 17.5419 19.1028 17.4484C18.926 17.3549 18.6006 17.1829 18.3797 17.0662C17.9548 16.8419 17.704 16.7091 16.9479 16.3085L16.4804 16.0607L16.4566 15.8508C16.4435 15.7353 16.4144 14.8906 16.3919 13.9736C16.3694 13.0566 16.332 11.6555 16.3088 10.8601C16.2856 10.0646 16.2629 9.16072 16.2585 8.85138C16.2491 8.19421 16.2022 8.22928 16.7727 8.46751C16.9716 8.55055 17.2809 8.67959 17.46 8.75427C17.6983 8.85363 17.7976 8.91722 17.8297 8.99126C17.8538 9.0469 18.0121 9.43591 18.1814 9.85573C18.3507 10.2755 18.5595 10.7929 18.6453 11.0053C18.7312 11.2178 18.8015 11.418 18.8015 11.4502C18.8015 11.4825 18.7539 11.5528 18.6957 11.6064C18.2921 11.9778 18.1147 12.3646 18.0813 12.9461L18.0583 13.3448L17.8172 13.3976C17.6847 13.4267 17.4723 13.4718 17.3452 13.4981C17.2181 13.5244 17.1142 13.5665 17.1142 13.5917C17.1142 13.617 17.1393 13.7268 17.17 13.8357C17.2208 14.0158 17.2713 14.2314 17.4613 15.0784C17.496 15.233 17.5455 15.4404 17.5714 15.5391L17.6183 15.7187L20.9287 17.3768C22.7494 18.2887 24.2472 19.0267 24.2572 19.0167C24.2753 18.9986 24.2419 18.8486 23.9389 17.5893C23.7318 16.7285 23.6523 16.3964 23.5016 15.7613C23.2407 14.6619 23.207 14.536 23.1741 14.536C23.1555 14.536 23.1403 14.5065 23.1403 14.4704C23.1403 14.4343 23.0692 14.1135 22.9824 13.7573C22.8956 13.4012 22.7842 12.9381 22.7349 12.7282C22.6857 12.5183 22.6328 12.3321 22.6176 12.3143C22.6023 12.2967 22.3896 12.3283 22.1448 12.3847C21.9001 12.441 21.6834 12.4871 21.6632 12.4871C21.6431 12.4871 21.6015 12.4113 21.5709 12.3186C21.5031 12.1129 21.2351 11.7414 21.0483 11.5943C20.9726 11.5346 20.88 11.4589 20.8425 11.4261C20.7362 11.3332 20.5582 11.2503 20.3555 11.1992C20.2534 11.1735 20.1538 11.1319 20.1341 11.1067C20.1144 11.0816 20.0772 10.8621 20.0514 10.619C20.0256 10.376 19.9798 9.97826 19.9496 9.73521C19.9196 9.49215 19.8654 9.04923 19.8294 8.75094C19.7934 8.45265 19.7463 8.11064 19.7247 7.99097C19.703 7.87129 19.6851 7.70858 19.6847 7.6294C19.6844 7.55022 19.6705 7.464 19.6538 7.43781C19.6372 7.41161 19.2985 7.26124 18.9012 7.10364C18.5039 6.94604 18.1246 6.79394 18.0583 6.76561C17.992 6.73729 17.8745 6.69053 17.7972 6.66168C17.7198 6.63284 17.4938 6.54241 17.295 6.46069C17.0961 6.37894 16.7074 6.22579 16.4312 6.1203C15.6433 5.81935 14.2337 5.26495 13.8802 5.11691C13.7034 5.04286 13.4865 4.9626 13.3981 4.93849C13.1588 4.87325 12.7863 4.88888 12.5126 4.97573ZM4.20925 7.38875C3.84515 7.51956 3.39018 7.99117 3.5195 8.10373C3.55694 8.13632 5.74177 8.87146 5.80119 8.87146C5.81983 8.87146 5.82706 8.7133 5.81726 8.51994C5.7899 7.97976 5.60928 7.70111 5.12944 7.45886C4.8109 7.29808 4.52281 7.27615 4.20925 7.38875ZM19.556 11.7973C19.0083 11.9572 18.6427 12.4398 18.6412 13.0045L18.6408 13.1804L18.8115 13.1534C18.9708 13.1283 19.1138 13.0962 20.0067 12.885C20.344 12.8052 20.7853 12.7039 20.9609 12.6659C21.0717 12.6418 21.0732 12.6072 20.9712 12.4074C20.8066 12.0846 20.4876 11.8521 20.0952 11.7689C19.837 11.7142 19.8415 11.714 19.556 11.7973Z" fill="#464646" fill-opacity="0.989"/>
</svg>
