<svg width="17" height="17" viewBox="0 0 17 17" fill="none" xmlns="http://www.w3.org/2000/svg">
<g clip-path="url(#clip0_16_751)">
<path d="M16.2818 8.76176C16.2818 8.20881 16.237 7.65287 16.1413 7.10889H8.46875V10.2413H12.8625C12.6801 11.2515 12.0943 12.1452 11.2365 12.7131V14.7456H13.8578C15.3971 13.3288 16.2818 11.2366 16.2818 8.76176Z" fill="#4285F4"/>
<path d="M8.46875 16.7094C10.6626 16.7094 12.5127 15.9891 13.8607 14.7457L11.2395 12.7132C10.5102 13.2094 9.56867 13.4903 8.47174 13.4903C6.34961 13.4903 4.55028 12.0586 3.90467 10.1338H1.19971V12.229C2.58059 14.9758 5.39315 16.7094 8.46875 16.7094Z" fill="#34A853"/>
<path d="M3.9015 10.1337C3.56076 9.12349 3.56076 8.02955 3.9015 7.0193V4.92407H1.19952C0.0457983 7.22255 0.0457983 9.9305 1.19952 12.229L3.9015 10.1337Z" fill="#FBBC04"/>
<path d="M8.46874 3.65979C9.62844 3.64186 10.7493 4.07824 11.5892 4.87927L13.9116 2.55688C12.441 1.17601 10.4893 0.416822 8.46874 0.440734C5.39315 0.440734 2.58059 2.1743 1.19971 4.9241L3.90168 7.01933C4.5443 5.09148 6.34662 3.65979 8.46874 3.65979Z" fill="#EA4335"/>
</g>
<defs>
<clipPath id="clip0_16_751">
<rect width="16.2687" height="16.2687" fill="white" transform="translate(0.171631 0.440186)"/>
</clipPath>
</defs>
</svg>
