<svg width="20" height="20" viewBox="0 0 20 20" fill="none" xmlns="http://www.w3.org/2000/svg">
<g clip-path="url(#clip0_1200_3566)">
<path fill-rule="evenodd" clip-rule="evenodd" d="M10 5C8.34316 5 7.00002 6.34315 7.00002 8C7.00002 9.65685 8.34316 11 10 11C11.6569 11 13 9.65685 13 8C13 6.34315 11.6569 5 10 5ZM9.00002 8C9.00002 7.44772 9.44773 7 10 7C10.5523 7 11 7.44772 11 8C11 8.55228 10.5523 9 10 9C9.44773 9 9.00002 8.55228 9.00002 8Z" fill="#808089"/>
<path fill-rule="evenodd" clip-rule="evenodd" d="M15.2263 1.98053C12.2238 -0.660178 7.77621 -0.660177 4.77372 1.98053C1.4099 4.93903 1.05765 10.1211 3.98018 13.5246L9.24132 19.6515C9.4313 19.8727 9.70839 20 10 20C10.2916 20 10.5687 19.8727 10.7587 19.6515L16.0198 13.5246C18.9423 10.1211 18.5901 4.93903 15.2263 1.98053ZM6.09455 3.48233C8.34177 1.50589 11.6582 1.50589 13.9054 3.48233C16.4426 5.71374 16.7151 9.64487 14.5025 12.2216L10 17.465L5.49753 12.2216C3.2849 9.64487 3.55743 5.71374 6.09455 3.48233Z" fill="#808089"/>
</g>
<defs>
<clipPath id="clip0_1200_3566">
<rect width="20" height="20" fill="white"/>
</clipPath>
</defs>
</svg>
