
<svg width="63" height="64" viewBox="0 0 63 64" fill="none" xmlns="http://www.w3.org/2000/svg">
<path fill-rule="evenodd" clip-rule="evenodd" d="M31.25 9.94287C39.8794 9.94287 46.875 16.9384 46.875 25.5679V26.509C46.875 29.9618 45.7962 33.3282 43.7893 36.1379L31.2809 53.6497C31.2657 53.6708 31.2343 53.6708 31.2191 53.6497L18.7107 36.1379C16.7038 33.3282 15.625 29.9618 15.625 26.509V25.5679C15.625 16.9384 22.6205 9.94287 31.25 9.94287ZM38.1123 24.0951C37.6357 22.0067 36.234 20.249 34.304 19.3196C32.3741 18.3902 30.1259 18.3902 28.196 19.3196C26.266 20.249 24.8643 22.0067 24.3877 24.0951C23.911 26.1835 24.4113 28.3753 25.7468 30.05C27.0824 31.7248 29.1079 32.7002 31.25 32.7002C33.3921 32.7002 35.4176 31.7248 36.7532 30.05C38.0887 28.3753 38.589 26.1835 38.1123 24.0951Z" fill="#139D01"/>
<path d="M43.7893 36.1379L45.6965 37.5001L43.7893 36.1379ZM31.2809 53.6497L33.188 55.0119L33.1881 55.0119L31.2809 53.6497ZM31.2191 53.6497L29.3119 55.0119L29.312 55.0119L31.2191 53.6497ZM18.7107 36.1379L20.6179 34.7756V34.7756L18.7107 36.1379ZM34.304 19.3196L35.3209 17.208L35.3209 17.208L34.304 19.3196ZM38.1123 24.0951L35.8274 24.6166L35.8274 24.6166L38.1123 24.0951ZM28.196 19.3196L27.1791 17.208L27.1791 17.208L28.196 19.3196ZM24.3877 24.0951L22.1027 23.5736L22.1027 23.5736L24.3877 24.0951ZM25.7468 30.05L27.5792 28.5887L27.5792 28.5887L25.7468 30.05ZM36.7532 30.05L34.9208 28.5887L34.9208 28.5887L36.7532 30.05ZM49.2187 25.5679C49.2187 15.644 41.1739 7.59912 31.25 7.59912V12.2866C38.585 12.2866 44.5312 18.2328 44.5312 25.5679H49.2187ZM49.2187 26.509V25.5679H44.5312V26.509L49.2187 26.509ZM45.6965 37.5001C47.9873 34.293 49.2187 30.4503 49.2187 26.509L44.5312 26.509C44.5312 29.4733 43.605 32.3635 41.8821 34.7756L45.6965 37.5001ZM33.1881 55.0119L45.6965 37.5001L41.8821 34.7756L29.3737 52.2874L33.1881 55.0119ZM29.312 55.0119C30.2618 56.3417 32.2382 56.3417 33.188 55.0119L29.3737 52.2874C30.2933 50.9999 32.2067 50.9999 33.1263 52.2874L29.312 55.0119ZM16.8035 37.5001L29.3119 55.0119L33.1263 52.2874L20.6179 34.7756L16.8035 37.5001ZM13.2812 26.509C13.2812 30.4503 14.5127 34.293 16.8035 37.5002L20.6179 34.7756C18.895 32.3635 17.9687 29.4733 17.9687 26.509H13.2812ZM13.2812 25.5679V26.509H17.9687V25.5679H13.2812ZM31.25 7.59912C21.3261 7.59912 13.2812 15.644 13.2812 25.5679H17.9687C17.9688 18.2328 23.915 12.2866 31.25 12.2866V7.59912ZM33.2871 21.4313C34.5744 22.0512 35.5094 23.2236 35.8274 24.6166L40.3973 23.5736C39.762 20.7898 37.8935 18.4469 35.3209 17.208L33.2871 21.4313ZM29.2129 21.4313C30.5002 20.8113 31.9998 20.8113 33.2871 21.4313L35.3209 17.208C32.7484 15.9691 29.7516 15.9691 27.1791 17.208L29.2129 21.4313ZM26.6726 24.6166C26.9906 23.2236 27.9256 22.0512 29.2129 21.4313L27.1791 17.208C24.6065 18.4469 22.738 20.7898 22.1027 23.5736L26.6726 24.6166ZM27.5792 28.5887C26.6884 27.4716 26.3547 26.0096 26.6726 24.6166L22.1027 23.5736C21.4673 26.3573 22.1341 29.2789 23.9144 31.5113L27.5792 28.5887ZM31.25 30.3564C29.8212 30.3564 28.4701 29.7058 27.5792 28.5887L23.9144 31.5113C25.6947 33.7437 28.3947 35.0439 31.25 35.0439V30.3564ZM34.9208 28.5887C34.0299 29.7058 32.6788 30.3564 31.25 30.3564V35.0439C34.1053 35.0439 36.8053 33.7437 38.5856 31.5113L34.9208 28.5887ZM35.8274 24.6166C36.1453 26.0096 35.8116 27.4716 34.9208 28.5887L38.5856 31.5113C40.3659 29.2789 41.0327 26.3573 40.3973 23.5736L35.8274 24.6166Z" fill="#139D01"/>
</svg>
