<svg width="28" height="28" viewBox="0 0 28 28" fill="none" xmlns="http://www.w3.org/2000/svg">
<path d="M9.58253 22.7859L0.939864 18.7844C0.746862 18.695 0.519398 18.7272 0.358861 18.8666C0.198269 19.006 0.134367 19.2266 0.195676 19.4302L1.35304 23.2761L0.195622 27.122C0.0846718 27.4556 0.3641 27.8283 0.712994 27.8179C0.78986 27.8179 0.86732 27.8014 0.939864 27.7679L9.58253 23.7663C9.9942 23.584 9.99733 22.9692 9.58253 22.7859ZM1.57645 26.2826L2.43434 23.4318C2.46492 23.3303 2.46492 23.222 2.43434 23.1205L1.57645 20.2697L8.06991 23.2761L1.57645 26.2826Z" fill="#28B446"/>
<path d="M22.9679 0.161133C20.2872 0.161133 18.1064 2.342 18.1064 5.02263C18.1382 7.64612 20.833 10.4968 22.5607 12.4822C22.7642 12.7264 23.1716 12.727 23.375 12.4822C25.1023 10.4978 27.798 7.6452 27.8294 5.02269C27.8294 2.342 25.6485 0.161133 22.9679 0.161133ZM22.9679 11.3087C21.5444 9.69351 19.1867 7.00948 19.1867 5.02263C19.1867 2.9377 20.8829 1.24147 22.9679 1.24147C25.0528 1.24147 26.749 2.9377 26.749 5.02263C26.749 7.00948 24.3913 9.69351 22.9679 11.3087Z" fill="#28B446"/>
<path d="M22.9679 2.8623C21.7766 2.8623 20.8073 3.83158 20.8073 5.02297C20.9159 7.88548 25.0204 7.88467 25.1286 5.02292C25.1286 3.83158 24.1593 2.8623 22.9679 2.8623ZM22.9679 6.10336C22.3723 6.10336 21.8876 5.61872 21.8876 5.02303C21.942 3.59175 23.9942 3.59212 24.0483 5.02303C24.0483 5.61867 23.5636 6.10336 22.9679 6.10336Z" fill="#28B446"/>
<path d="M10.814 12.6672H11.8943C12.6098 12.6409 12.6102 11.6134 11.8943 11.5869H10.814C10.0986 11.6133 10.0982 12.6408 10.814 12.6672Z" fill="#28B446"/>
<path d="M6.49251 12.6676C6.50602 12.6675 6.51952 12.6672 6.53308 12.6672H7.57301C8.28835 12.641 8.28894 11.6134 7.57301 11.5869H6.53308C6.51639 11.5869 6.4997 11.587 6.48311 11.5873C5.77458 11.6236 5.78403 12.644 6.49251 12.6676Z" fill="#28B446"/>
<path d="M12.5284 16.9347C12.5284 16.6364 12.2866 16.3945 11.9883 16.3945H10.9079C10.1925 16.4209 10.1921 17.4484 10.9079 17.4749H11.9883C12.2866 17.4749 12.5284 17.233 12.5284 16.9347Z" fill="#28B446"/>
<path d="M7.66688 16.3945H6.58655C5.8711 16.4209 5.87072 17.4484 6.58655 17.4749H7.66688C8.38239 17.4485 8.38271 16.4209 7.66688 16.3945Z" fill="#28B446"/>
<path d="M4.20055 15.6525C4.54599 15.6566 4.81407 15.316 4.72494 14.9809C4.65726 14.7121 4.6518 14.4234 4.70874 14.1521C4.83109 13.4476 3.82184 13.236 3.65131 13.931C3.56094 14.3614 3.56969 14.817 3.67702 15.2434C3.73844 15.4888 3.95861 15.6525 4.20055 15.6525Z" fill="#28B446"/>
<path d="M19.4568 12.6672H20.5371C21.2526 12.6409 21.253 11.6134 20.5371 11.5869H19.4568C18.7414 11.6133 18.741 12.6408 19.4568 12.6672Z" fill="#28B446"/>
<path d="M21.0392 22.4216C20.7748 22.5645 20.491 22.66 20.1954 22.7054C19.4905 22.8397 19.6516 23.8584 20.3595 23.7733C20.7778 23.709 21.1795 23.574 21.5531 23.3719C22.1701 23.0102 21.68 22.1031 21.0392 22.4216Z" fill="#28B446"/>
<path d="M20.4799 17.565C21.1726 17.729 21.4486 16.735 20.7622 16.5222C20.3725 16.4117 19.9558 16.3852 19.5506 16.3942C19.2523 16.3942 19.0104 16.636 19.0104 16.9344C19.0104 17.2327 19.2523 17.4745 19.5506 17.4745H19.797C20.0284 17.4746 20.2582 17.505 20.4799 17.565Z" fill="#28B446"/>
<path d="M22.6864 18.6956C22.4003 18.78 22.2368 19.0804 22.3213 19.3665C22.3919 19.6057 22.4276 19.8543 22.4276 20.1055C22.3106 21.0565 23.602 21.0619 23.508 20.1055C23.508 19.7507 23.4573 19.3992 23.3574 19.0607C23.2729 18.7746 22.9727 18.6111 22.6864 18.6956Z" fill="#28B446"/>
<path d="M12.7172 22.7358H11.6368C10.9214 22.7622 10.921 23.7897 11.6368 23.8162H12.7172C13.4326 23.7898 13.433 22.7623 12.7172 22.7358Z" fill="#28B446"/>
<path d="M17.0386 22.7358H15.9582C15.2428 22.7622 15.2424 23.7897 15.9582 23.8162H17.0386C17.754 23.7898 17.7544 22.7623 17.0386 22.7358Z" fill="#28B446"/>
<path d="M15.1354 12.6672H16.2158C16.9312 12.6409 16.9316 11.6134 16.2158 11.5869H15.1354C14.4199 11.6133 14.4196 12.6408 15.1354 12.6672Z" fill="#28B446"/>
<path d="M16.8498 16.9347C16.8498 16.6364 16.608 16.3945 16.3097 16.3945H15.2293C14.5139 16.4209 14.5135 17.4484 15.2293 17.4749H16.3097C16.608 17.4749 16.8498 17.233 16.8498 16.9347Z" fill="#28B446"/>
</svg>
