<svg width="18" height="18" viewBox="0 0 18 18" fill="none" xmlns="http://www.w3.org/2000/svg">
<path opacity="0.4" fill-rule="evenodd" clip-rule="evenodd" d="M6.89152 2.81041C6.89152 2.50079 6.63578 2.25 6.32078 2.25H6.32002L5.09827 2.25074C3.45502 2.25221 2.11777 3.56499 2.11777 5.17709V6.57151C2.11777 6.8804 2.37352 7.13192 2.68852 7.13192C3.00352 7.13192 3.26003 6.8804 3.26003 6.57151V5.17709C3.26003 4.18203 4.08502 3.3723 5.09902 3.37083L6.32078 3.37009C6.63653 3.37009 6.89152 3.1193 6.89152 2.81041ZM12.8952 2.25022H11.7004C11.3854 2.25022 11.1297 2.50101 11.1297 2.81063C11.1297 3.11952 11.3854 3.36958 11.7004 3.36958H12.8952C13.9129 3.36958 14.7409 4.18151 14.7409 5.17952V6.57173C14.7409 6.88062 14.9967 7.13214 15.3117 7.13214C15.6274 7.13214 15.8825 6.88062 15.8825 6.57173V5.17952C15.8825 3.56374 14.5429 2.25022 12.8952 2.25022ZM6.92887 5.05699H11.0719C11.5256 5.05699 11.9614 5.23571 12.2786 5.55416C12.5981 5.87555 12.7751 6.30726 12.7744 6.75662V7.69064C12.7706 7.80022 12.6814 7.88921 12.5696 7.89215H5.42962C5.31862 7.88848 5.22937 7.79949 5.22712 7.69064V6.75662C5.21887 5.82627 5.98087 5.06655 6.92887 5.05699Z" fill="#629D03"/>
<path d="M16.6793 9.03076H1.3215C1.0065 9.03076 0.75 9.28155 0.75 9.59117C0.75 9.90006 1.0065 10.1501 1.3215 10.1501H2.11725V12.8227C2.11725 14.4349 3.45525 15.7476 5.0985 15.7491L6.32025 15.7498V15.7498C6.636 15.7498 6.891 15.499 6.89175 15.1894C6.89175 14.8805 6.636 14.6297 6.321 14.6297L5.1 14.629C4.08525 14.6275 3.2595 13.8178 3.2595 12.8227V10.1501H5.22675V10.8937C5.21925 11.824 5.9805 12.5845 6.9285 12.5933H11.0715C12.0203 12.5845 12.7815 11.824 12.774 10.8937V10.1501H14.7413V12.8198C14.7413 13.8185 13.9133 14.6297 12.8955 14.6297H11.7007C11.385 14.6297 11.1292 14.8805 11.1292 15.1894C11.1292 15.499 11.385 15.7498 11.7007 15.7498H12.8955C14.5425 15.7498 15.8828 14.4363 15.8828 12.8198V10.1501H16.6793C16.9943 10.1501 17.25 9.90006 17.25 9.59117C17.25 9.28155 16.9943 9.03076 16.6793 9.03076" fill="#629D03"/>
</svg>
