<svg width="32" height="20" viewBox="0 0 32 20" fill="none" xmlns="http://www.w3.org/2000/svg">
<path d="M8.66666 16.5452H6C5.632 16.5452 5.33333 16.2466 5.33333 15.8786C5.33333 15.5106 5.632 15.2119 6 15.2119H8.66666C9.03466 15.2119 9.33333 15.5106 9.33333 15.8786C9.33333 16.2466 9.03466 16.5452 8.66666 16.5452Z" fill="#868889"/>
<path d="M30.3334 16.5454H28.6667C28.2987 16.5454 28 16.2467 28 15.8787C28 15.5107 28.2987 15.2121 28.6667 15.2121H29.78L30.6787 10.4227C30.6667 7.97208 28.5734 5.87874 26 5.87874H21.6227L19.5014 15.2121H23.3334C23.7014 15.2121 24 15.5107 24 15.8787C24 16.2467 23.7014 16.5454 23.3334 16.5454H18.6667C18.464 16.5454 18.272 16.4534 18.1454 16.2947C18.0187 16.1374 17.9707 15.9294 18.016 15.7321L20.44 5.06541C20.5094 4.76008 20.7787 4.54541 21.0907 4.54541H26C29.308 4.54541 32 7.23741 32 10.5454L30.988 16.0014C30.9294 16.3174 30.6547 16.5454 30.3334 16.5454Z" fill="#868889"/>
<path d="M26 19.2121C24.1627 19.2121 22.6667 17.7174 22.6667 15.8787C22.6667 14.0401 24.1627 12.5454 26 12.5454C27.8373 12.5454 29.3333 14.0401 29.3333 15.8787C29.3333 17.7174 27.8373 19.2121 26 19.2121ZM26 13.8787C24.8973 13.8787 24 14.7761 24 15.8787C24 16.9814 24.8973 17.8787 26 17.8787C27.1027 17.8787 28 16.9814 28 15.8787C28 14.7761 27.1027 13.8787 26 13.8787Z" fill="#868889"/>
<path d="M11.3333 19.2121C9.496 19.2121 8 17.7174 8 15.8787C8 14.0401 9.496 12.5454 11.3333 12.5454C13.1707 12.5454 14.6667 14.0401 14.6667 15.8787C14.6667 17.7174 13.1707 19.2121 11.3333 19.2121ZM11.3333 13.8787C10.2307 13.8787 9.33333 14.7761 9.33333 15.8787C9.33333 16.9814 10.2307 17.8787 11.3333 17.8787C12.436 17.8787 13.3333 16.9814 13.3333 15.8787C13.3333 14.7761 12.436 13.8787 11.3333 13.8787Z" fill="#868889"/>
<path d="M8.66666 4.54525H3.33332C2.96532 4.54525 2.66666 4.24658 2.66666 3.87858C2.66666 3.51058 2.96532 3.21191 3.33332 3.21191H8.66666C9.03466 3.21191 9.33333 3.51058 9.33333 3.87858C9.33333 4.24658 9.03466 4.54525 8.66666 4.54525Z" fill="#868889"/>
<path d="M8.66668 8.54525H2.00001C1.63201 8.54525 1.33334 8.24658 1.33334 7.87858C1.33334 7.51058 1.63201 7.21191 2.00001 7.21191H8.66668C9.03468 7.21191 9.33335 7.51058 9.33335 7.87858C9.33335 8.24658 9.03468 8.54525 8.66668 8.54525Z" fill="#868889"/>
<path d="M8.66667 12.5452H0.666667C0.298667 12.5452 0 12.2466 0 11.8786C0 11.5106 0.298667 11.2119 0.666667 11.2119H8.66667C9.03467 11.2119 9.33334 11.5106 9.33334 11.8786C9.33334 12.2466 9.03467 12.5452 8.66667 12.5452Z" fill="#868889"/>
<path d="M18.6667 16.5454H14C13.632 16.5454 13.3333 16.2467 13.3333 15.8787C13.3333 15.5107 13.632 15.2121 14 15.2121H18.1347L21.164 1.87874H6C5.632 1.87874 5.33333 1.58008 5.33333 1.21208C5.33333 0.844077 5.632 0.54541 6 0.54541H22C22.2027 0.54541 22.3947 0.63741 22.5213 0.796077C22.648 0.953411 22.696 1.16141 22.6507 1.35874L19.3173 16.0254C19.248 16.3308 18.9773 16.5454 18.6667 16.5454Z" fill="#868889"/>
</svg>
