<svg width="20" height="20" viewBox="0 0 20 20" fill="none" xmlns="http://www.w3.org/2000/svg">
<g clip-path="url(#clip0_136_6541)">
<path d="M18.9138 3.13021C18.6357 2.85156 18.1843 2.85108 17.9061 3.12903L9.35669 11.6559L6.27207 8.30573C6.00553 8.0164 5.55489 7.99764 5.26509 8.26414C4.97551 8.53068 4.95697 8.98154 5.2235 9.27113L8.81054 13.1667C8.94191 13.3095 9.12575 13.3924 9.31961 13.3964C9.32482 13.3967 9.32984 13.3967 9.33483 13.3967C9.52321 13.3967 9.70444 13.3218 9.83795 13.1888L18.9124 4.13812C19.1913 3.86021 19.1918 3.40887 18.9138 3.13021Z" fill="#28B446"/>
<path d="M18.7419 9.28728C18.3483 9.28728 18.0292 9.6063 18.0292 9.99996C18.0292 14.4275 14.4275 18.0292 10 18.0292C5.57276 18.0292 1.97077 14.4275 1.97077 9.99996C1.97077 5.57272 5.57276 1.97072 10 1.97072C10.3936 1.97072 10.7127 1.6517 10.7127 1.25808C10.7127 0.864427 10.3936 0.54541 10 0.54541C4.78671 0.54541 0.545456 4.78666 0.545456 9.99996C0.545456 15.213 4.78671 19.4545 10 19.4545C15.2131 19.4545 19.4545 15.213 19.4545 9.99996C19.4545 9.60634 19.1355 9.28728 18.7419 9.28728Z" fill="#28B446"/>
</g>
<defs>
<clipPath id="clip0_136_6541">
<rect width="18.9091" height="18.9091" fill="white" transform="translate(0.545456 0.54541)"/>
</clipPath>
</defs>
</svg>
