<svg width="89" height="89" viewBox="0 0 89 89" fill="none" xmlns="http://www.w3.org/2000/svg">
<circle cx="44.5" cy="44.5" r="44.5" fill="#E4F6F0"/>
<path d="M45.0002 7.07715C24.5387 7.07715 8.07715 23.5387 8.07715 44.0002C8.07715 64.4618 24.5387 80.9233 45.0002 80.9233C65.4618 80.9233 81.9233 64.4618 81.9233 44.0002C81.9233 23.5387 65.4618 7.07715 45.0002 7.07715ZM65.6156 34.7695L42.0771 58.6156C41.1541 59.5387 39.6156 59.5387 38.6925 58.6156L25.7695 45.5387C24.8464 44.6156 24.8464 43.0771 25.7695 42.1541L29.1541 38.7695C30.0771 37.8464 31.6156 37.8464 32.5387 38.7695L39.3079 45.6925C39.9233 46.3079 41.0002 46.3079 41.6156 45.6925L58.8464 27.8464C59.7695 26.9233 61.3079 26.9233 62.231 27.8464L65.6156 31.231C66.6925 32.1541 66.6925 33.6925 65.6156 34.7695Z" fill="#32C993"/>
</svg>
