<svg width="20" height="16" viewBox="0 0 20 16" fill="none" xmlns="http://www.w3.org/2000/svg">
<path d="M7.5 7C8.32843 7 9 6.32843 9 5.5C9 4.67157 8.32843 4 7.5 4C6.67157 4 6 4.67157 6 5.5C6 6.32843 6.67157 7 7.5 7Z" fill="#9EC81D"/>
<path d="M14 10.5C14 11.3284 13.3284 12 12.5 12C11.6716 12 11 11.3284 11 10.5C11 9.67157 11.6716 9 12.5 9C13.3284 9 14 9.67157 14 10.5Z" fill="#9EC81D"/>
<path d="M12.7071 6.70711C13.0976 6.31658 13.0976 5.68342 12.7071 5.29289C12.3166 4.90237 11.6834 4.90237 11.2929 5.29289L7.29289 9.29289C6.90237 9.68342 6.90237 10.3166 7.29289 10.7071C7.68342 11.0976 8.31658 11.0976 8.70711 10.7071L12.7071 6.70711Z" fill="#9EC81D"/>
<path fill-rule="evenodd" clip-rule="evenodd" d="M2 0C0.89543 0 0 0.895431 0 2V5.17164C0 5.43685 0.105357 5.69121 0.292893 5.87874L0.999936 6.58579C1.78098 7.36684 1.78098 8.63317 0.999936 9.41421L0.292893 10.1213C0.105357 10.3088 0 10.5631 0 10.8284V14C0 15.1046 0.89543 16 2 16L18 16C19.1046 16 20 15.1046 20 14V10.8284C20 10.5525 19.8866 10.2951 19.6959 10.1102L18.9999 9.41421C18.2189 8.63317 18.2189 7.36684 18.9999 6.58579L19.6959 5.88982C19.8866 5.70495 20 5.44756 20 5.17164V2C20 0.895432 19.1046 0 18 0H2ZM17.5857 10.8284L18 11.2427V14H2V11.2426L2.41415 10.8284C3.97625 9.26633 3.97625 6.73367 2.41415 5.17157L2 4.75742V2L18 2V4.75729L17.5857 5.17157C16.0236 6.73367 16.0236 9.26633 17.5857 10.8284Z" fill="#9EC81D"/>
</svg>
